# xmcd
#
# Track frame offsets:
#	150
#	14115
#	31855
#	52784
#	66642
#	80028
#	98143
#	110941
#	123659
#	137034
#	149888
#	163501
#	180423
#	197138
#
# Disc length: 2845 seconds
#
# Revision: 0
# Processed by: cddbd v1.5PL3 Copyright (c) Steve Scherf et al.
# Submitted via: dBpowerAMP V4.0
#
DISCID=d60b1b0e
DTITLE=Vários - Forró Novo Estilo
DYEAR=1900
DGENRE=Forró
TTITLE0=Meu esporte é vaquejada - Sirano
TTITLE1=Vaqueiro do sertão - Forró lotado
TTITLE2=Correntes - Jorge de Altinho
TTITLE3=Pintura Íntima - Sheilamy
TTITLE4=Pout-porri - Capital do forró
TTITLE5=O bicho da mulher - Forró Brasil
TTITLE6=Pout-porri - França and Forrozão Karapebba
TTITLE7=Gulu Gulu - Sandro becker
TTITLE8=Que nem pudim - Quenga do coco
TTITLE9=Pescador - Carlos rilmar
TTITLE10=Jeito Bom - Sirano
TTITLE11=Minha Estrela - Wesley dos teclados
TTITLE12=Pout-porri - França and Forrozão Karapebba
TTITLE13=Valeu o boi de novo - Forró lotado
EXTD=Forró Novo Estilo by Franklin W. Danin
EXTT0=
EXTT1=
EXTT2=
EXTT3=
EXTT4=
EXTT5=
EXTT6=
EXTT7=
EXTT8=
EXTT9=
EXTT10=
EXTT11=
EXTT12=
EXTT13=
PLAYORDER=
